<svg xmlns="http://www.w3.org/2000/svg" id="Capa_2" data-name="Capa 2" viewBox="0 0 1532.48 414.06">
  <g id="Capa_1-2" data-name="Capa 1">
    <g>
      <path d="M33.73,226.21c8.83,0,17.67,.2,26.5-.09,3.87-.13,4.85,1.14,4.62,4.82-.26,4.14-.09,8.34,.33,12.47,1.66,16.19,11.09,26.44,26.23,30.43,25.41,6.71,50.87,5.94,75.4-4.08,14.34-5.86,23.94-16.6,27.62-32,3.23-13.53-.79-22.46-13.17-28.99-11.28-5.95-23.6-8.93-35.88-11.89-23.74-5.72-47.71-10.6-70.7-19.13-18.08-6.71-33.04-16.91-39.1-36.3-4.26-13.62-3.64-27.53-.98-41.49C44.07,50.19,86.11,13.26,135.44,4.09c26.81-4.98,53.64-6.28,80.17,1.1,22.49,6.25,41.83,17.56,53.56,38.71,9.56,17.23,9.96,35.93,7.32,54.92-.36,2.56-1.7,3.59-4.37,3.58-18.33-.08-36.66-.03-55-.06-1.98,0-3.75,.25-3.52-3.12,1.68-24.41-8.79-38.41-33.1-43.04-18.06-3.44-36.19-2.88-53.59,3.89-15.61,6.08-26.9,16.32-30.57,33.47-2.53,11.83,1.68,21.12,12.59,26.45,14.46,7.08,30.22,10.07,45.63,14.16,19.75,5.25,39.83,9.27,59.2,15.9,8.55,2.92,16.65,6.8,24.05,11.98,14.46,10.13,22.19,24.22,22.94,41.75,1.61,37.61-13.5,67.83-41.69,92.01-25.11,21.53-54.78,31.34-87.26,34.14-22.4,1.93-44.61,1.05-66.49-4.18-15.23-3.64-29.3-9.95-41.23-20.36C3.63,287.56-2.15,264.43,.67,238.54c1.35-12.38,1.82-12.33,14.07-12.33,6.33,0,12.67,0,19,0Z" fill="#f51e4d"/>
      <path d="M347.22,294.9c-3.12,14.56-6.26,29.12-9.36,43.69-5.05,23.74-10.13,47.47-15.04,71.23-.67,3.25-2.07,4.27-5.32,4.24-16.33-.14-32.67-.06-49-.06-6.41,0-6.38,0-5.09-6.07,7.28-34.14,14.53-68.28,21.81-102.42,14.93-70.07,29.91-140.12,44.71-210.22,.72-3.4,2.01-4.24,5.22-4.22,16.17,.13,32.34,.24,48.5-.05,4.72-.09,4.71,1.83,3.92,5.31-1.84,8.1-3.52,16.24-5.27,24.36-.2,.94-.66,1.88,.31,3.18,6.09-6.42,12.28-12.63,19.24-18.01,24.62-19.05,52.16-24.27,81.98-16.43,26.66,7.01,46.79,31.13,49.99,58.92,4.28,37.2-4.62,72.01-19.68,105.62-10.55,23.54-26.65,42.54-47.99,56.95-23.39,15.79-49.23,21.28-77.05,16.9-16.25-2.56-28.68-11.04-36.74-25.58-1.35-2.45-2.67-4.91-4-7.37-.38,.02-.76,.03-1.14,.05Zm123.11-109.35c.15-9.35-1.6-18.27-4.98-26.89-3.51-8.93-9.82-15.25-19.06-17.66-22.6-5.89-43.37-1.82-58.6,16.4-21.69,25.94-29.95,56.72-26.72,90.3,1.4,14.56,12.01,26.2,26.21,29.41,23.72,5.36,43.43-1.78,58.59-20.69,16.58-20.67,23.03-44.96,24.55-70.87Z" fill="#f51e4d"/>
      <path d="M704.94,84.12c16.28-.5,32.26,1.41,47.45,7.53,24.92,10.02,37.9,30.03,44.35,54.87,6.5,25.03,3.91,49.92-3.28,74.39-8.94,30.42-25.25,56.41-48.81,77.64-24.11,21.73-53.18,30.79-85.05,32.17-13.52,.58-26.93-.35-40.22-3.19-33.9-7.23-52.73-29.29-60.16-61.92-6.17-27.09-2.26-53.63,6.79-79.5,11.12-31.8,29.91-58.25,57.03-78.35,20.96-15.54,45.08-22.33,70.9-23.61,3.65-.18,7.32-.02,10.99-.02Zm31.92,98.02c-.23-3.66-.38-7.48-.73-11.29-1.64-17.85-13.1-31.89-29.32-34.84-25.56-4.65-47.37,2.3-63.28,23.36-18.75,24.84-25.4,53.57-23.4,84.15,1.23,18.82,13.08,32.45,29.29,35.4,25.78,4.69,47.46-2.64,63.6-23.79,16.37-21.45,22.01-46.52,23.84-72.99Z" fill="#f51e4d"/>
      <path d="M1249.4,223.68c-24.66,0-49.33,.12-73.99-.11-4.29-.04-5.94,1.25-6.26,5.38-.66,8.67-1.04,17.34,1.11,25.83,3.78,14.96,16.89,25.05,32.67,26.49,22.17,2.01,39.78-5.63,52.91-23.54,1.45-1.98,3-2.66,5.4-2.65,18,.09,36,.12,53.99-.01,3.47-.03,3.96,.89,2.66,3.95-4.5,10.58-11.15,19.68-18.93,27.99-25.16,26.91-55.84,41.74-92.96,43.09-19.46,.71-38.24-1.38-55.71-10.48-21.85-11.39-37.07-28.18-40.86-53.31-2.84-18.79-1.28-37.5,2.73-56.06,5.79-26.82,14.98-52.23,32.2-73.91,26.77-33.7,61.62-51.38,105.07-51.31,16.37,.03,32.19,2.62,46.99,9.73,22.05,10.6,33.03,29.51,38.39,52.45,4.35,18.63,1.62,37.09-1.38,55.52-.91,5.57-2.53,11.03-3.32,16.61-.53,3.72-2.32,4.43-5.69,4.41-25-.12-49.99-.06-74.99-.06Zm-21.74-39.63c14.14,0,28.28,0,42.42,0,.17,0,.34,.02,.5,0,1.66-.25,3.99,.75,4.48-1.91,2.38-13.11,.68-32.14-14.18-41.27-13.9-8.53-28.68-8.15-43.15-2.57-19.52,7.53-29.34,24.08-36.54,42.52-1.44,3.68,1.49,3.22,3.57,3.22,14.31,.03,28.61,.02,42.92,.02Z" fill="#f51e4d"/>
      <path d="M1041.23,325.99c-13.17,.11-26.33,.38-39.2-3.12-5.99-1.63-11.67-3.99-16.33-8.23-7.35-6.68-8.8-15.41-7.99-24.68,1.35-15.45,5.69-30.36,8.82-45.48,7.18-34.65,14.66-69.24,22.18-103.82,.88-4.07-.38-4.89-4.11-4.8-7.82,.2-15.66-.06-23.49,.12-3.01,.07-3.69-.91-3.07-3.73,2.64-12.01,5.22-24.03,7.63-36.08,.52-2.61,1.84-3.03,4.1-3.01,7.83,.09,15.67-.21,23.49,.13,4.04,.18,5.83-.95,6.65-5.07,3.58-17.92,7.63-35.75,11.17-53.68,.94-4.75,2.72-6.43,7.76-6.31,16.15,.36,32.32,.22,48.48,.07,3.82-.03,4.8,.76,3.88,4.83-4.14,18.31-7.75,36.74-11.89,55.05-.96,4.25,.06,5.17,4.12,5.07,9.16-.23,18.33,.04,27.49-.13,3.62-.06,5.32,.15,4.16,4.77-2.81,11.28-5.01,22.71-7.22,34.13-.6,3.11-1.98,4-5.01,3.95-9.49-.16-19,.16-28.48-.16-3.97-.13-5.49,1.22-6.28,4.99-7.33,34.96-14.87,69.88-22.23,104.83-1.71,8.11-4.17,16.11-4.23,24.53-.05,6.3,1.2,7.88,7.43,9.09,7.59,1.48,15.28,1.05,22.92,.85,3.56-.09,4.27,1.06,3.53,4.34-2.73,12.16-5.33,24.34-7.87,36.54-.6,2.86-1.85,4.02-4.96,4.05-7.16,.06-14.31,.61-21.46,.96Z" fill="#f51e4d"/>
      <path d="M970.76,93.17c-2.89,13.65-5.74,26.78-8.4,39.95-.56,2.75-2.21,2.81-4.32,2.8-9.83-.03-19.66,.12-29.48-.09-3.22-.07-4.79,.84-5.48,4.08-8.63,40.8-17.49,81.55-25.97,122.38-2.97,14.32-.11,17.42,14.7,17.83,5.16,.14,10.33,.15,15.49,0,2.8-.08,3.85,.46,3.12,3.64-2.88,12.46-5.51,24.98-8.2,37.49-.43,2.02-.68,3.62-3.54,3.72-17.14,.58-34.26,2-51.39-.09-4.63-.57-9.18-1.46-13.6-2.99-16.72-5.81-23.68-17.2-21.07-34.71,2.23-14.97,5.97-29.64,9.07-44.43,7.17-34.15,14.39-68.28,21.82-102.37,.85-3.92-.22-4.59-3.7-4.52-7.99,.15-15.99,0-23.99,.07-2.63,.03-3.83-.19-3.05-3.55,2.73-11.82,5.08-23.72,7.47-35.61,.55-2.75,1.78-3.76,4.71-3.69,8.16,.21,16.33-.04,24.49,.13,3.04,.06,4.28-.84,4.93-4,3.78-18.56,7.92-37.04,11.76-55.59,.78-3.77,2-5.51,6.42-5.42,16.32,.34,32.65,.33,48.97,.02,4.89-.09,5.34,1.38,4.38,5.64-4.07,17.98-7.75,36.06-11.79,54.05-.92,4.11-.24,5.5,4.31,5.36,10.63-.33,21.27-.11,32.36-.11Z" fill="#f51e4d"/>
      <path d="M1448.09,129.79c5.61-6.12,11.2-12.26,16.82-18.37,16.71-18.17,37.79-25.92,62.08-25.95,5.82,0,6.13,.42,4.91,6.25-3.64,17.24-7.46,34.43-10.87,51.71-.75,3.77-2.1,4.32-5.64,3.95-10.62-1.11-21.23-.97-31.79,1.3-21.74,4.68-35.94,17.79-43.7,38.32-7.03,18.62-9.78,38.29-14.02,57.58-5.42,24.67-10.58,49.4-15.68,74.14-.61,2.97-1.47,4.19-4.72,4.16-17.49-.16-34.99-.15-52.49,0-3.5,.03-4.24-1.01-3.53-4.34,15.84-74.28,31.63-148.56,47.29-222.88,.72-3.4,1.76-4.66,5.4-4.62,16.16,.21,32.33,.17,48.49,.03,3.56-.03,4.6,.73,3.71,4.53-2.62,11.29-4.82,22.67-7.19,34.02,.31,.06,.61,.11,.92,.17Z" fill="#f51e4d"/>
    </g>
  </g>
</svg>
